<svg xmlns="http://www.w3.org/2000/svg" viewBox="0 0 744.09 1052.4" style="background: #fff"><g style="fill-rule:evenodd"><path style="fill:#000" d="M128.04 701.03a6.354 6.354 0 0 1 3.631.351 6.462 6.462 0 0 1 3.956-2.48 6.486 6.486 0 0 1 5.846 1.834 518.534 518.534 0 0 0 34.573-7.11 526.433 526.433 0 0 0 34.316-9.551c10.028-3.154 19.724-7.345 29.344-11.772-2.043-3.592-3.849-7.352-5.433-11.167a85.559 85.559 0 0 1-2.176-5.813 352.862 352.862 0 0 1-19.242-2.462c-2.549-.4-7.687-1.152-12.856-1.908-26.542-3.881-53.747-7.86-77.245-21.643-16.308-9.565-29.592-21.637-38.356-36.438-8.143-13.755-12.347-29.748-11.418-48.134 1.134-22.447 9.204-43.452 20.494-63.172 11.033-19.272 25.149-37.314 38.78-54.264 12.133-15.087 26.263-28.272 40.575-41.238-3.482-12.597-5.017-25.511-4.146-38.375-21.257-9.457-42.172-18.77-62.731-32.261-7.513-4.931-17.905-12.874-24.332-21.774-5.26-7.284-7.97-15.272-5.172-23.265 3.237-9.252 9.764-16.193 17.872-21.212 9.227-5.711 20.509-8.89 31.083-10.12 19.602-2.282 39.322-1.432 57.904 2.885 17.747 4.123 34.449 11.4 49.027 22.121 4.867 3.58 9.09 8.605 12.36 14.348 1.2.099 2.38.232 3.538.401 12.025 1.753 24.54 7.224 34.93 15.306.598-1.01 1.034-2.071 1.079-3.291.28-7.725-11.845-9.622-12.205-26.304-.242-11.241 11.376-17.184 11.973-29.14.488-9.76-3.278-20.289-6.447-29.913-1.953-5.934-4.331-12.309-8.75-16.247-3.367-3.001-8.766-.787-12.664-2.836-1.584-.834-.862-4.567-2.532-5.158-16.195-5.731-24.88-12.715-28.711-25.865-1.238-4.258-1.145-7.023 3.436-9.084 8.526-3.837 29.758-6.732 55.734-7.43-1.371-1.402-3.463-3.238-3.518-4.812-.087-2.406 2.632-3.83 3.684-5.931 1.107-2.216 3.576-4.592 2.762-6.963-.813-2.37-4.587-1.33-6.216-3.094-.892-.963-.873-2.82-.462-4.126 1.029-3.268 4.487-5.564 4.605-9.026.106-3.087-9.44-8.285-9.44-14.441 0-3.6 4.928-5.45 5.297-9.026.5-4.863-20.016-13.968-14.508-21.662 6.563-9.165 19.674-9.283 30.164-9.283 10.49 0 23.6.118 30.164 9.283 5.508 7.693-15.01 16.798-14.507 21.662.368 3.576 5.297 5.426 5.297 9.026 0 6.155-9.546 11.354-9.441 14.441.119 3.462 3.576 5.758 4.605 9.026.41 1.306.43 3.163-.461 4.126-1.63 1.764-5.403.724-6.216 3.094-.815 2.371 1.655 4.747 2.762 6.963 1.05 2.101 3.77 3.525 3.683 5.931-.055 1.577-2.158 3.418-3.528 4.821 25.609.71 46.553 3.556 55.168 7.33 4.374 1.917 5.32 4.554 4.106 8.851-3.783 13.36-12.477 20.411-28.804 26.189-1.67.591-.948 4.324-2.533 5.158-3.897 2.049-9.296-.165-12.664 2.836-4.42 3.938-6.796 10.313-8.75 16.247-3.17 9.624-6.935 20.153-6.447 29.913.598 11.956 12.215 17.899 11.974 29.14-.36 16.682-12.486 18.579-12.205 26.304.126 3.461 3.389 5.636 4.605 9.025.905 2.518.505 5.968-1.38 7.994-1.153 1.239-2.876 1.097-2.765 4.384.184 5.35 6.36 8.001 9.672 11.863 2.775 3.237 4.409 8.296 4.375 12.893-.048 6.423-1.312 13.693-4.605 18.567-1.578 2.335-4.042 4.012-5.066 6.705-.634 1.668-.104 3.717.46 5.416.699 2.1 2.67 3.52 3.225 5.673.637 2.479.967 5.292.23 7.736-1.03 3.41-4.393 5.571-5.297 9.026-.513 1.961.395 4.214 1.382 5.931.14.244.28.486.423.726 7.16-7.238 14.122-13.226 21.748-17.821-.653-2.728.608-5.672 3.205-7.017 2.089-1.081 4.522-.856 6.357.371a699.01 699.01 0 0 1 26.28-12.86c-15.027-13.851-28.804-26.641-32.211-48.497-1.313-8.425 1.657-17.416 6.716-25.468 5.645-8.988 14.064-17.046 21.786-21.617 14.432-8.544 30.627-14.047 47.433-17.357 16.524-3.254 33.726-4.38 50.443-4.199 10.156.109 22.026 1.988 32.094 6.462 8.69 3.863 16.115 9.637 20.306 17.847l-.021.011c2.899 5.686 2.786 12.489.91 18.819-2.032 6.86-6.25 13.446-10.835 17.28-14.054 11.749-29.526 21.598-45.502 30.19-15.85 8.523-32.156 15.789-48.05 22.444-2.248.941-4.463 1.874-6.647 2.797.342 2.543-.915 5.153-3.317 6.396-2.685 1.389-5.941.625-7.761-1.657l-1.35.585 6.329 6.009c36.339 34.493 68.659 65.172 94.239 104.91 8.91 13.843 16.105 28.951 20.512 44.762 4.028 14.449 5.714 29.467 4.245 44.626-1.74 17.946-10.847 37.15-27.792 52.931-13.198 12.291-31.17 22.54-54.113 28.486 1.246 12.129-1.772 24.086-8.855 33.924-4.474 6.214-10.542 11.546-18.142 15.496 8.679 2.011 17.498 3.749 26.507 5.522 4.85.955 9.759 1.92 15.515 3.116a6.498 6.498 0 0 1 6.28-2.153 6.45 6.45 0 0 1 3.908 2.553 6.36 6.36 0 0 1 3.639-.285 6.378 6.378 0 0 1 3.88 2.56 6.299 6.299 0 0 1 3.668-.292 6.3 6.3 0 0 1 3.85 2.569 6.23 6.23 0 0 1 3.697-.301 6.226 6.226 0 0 1 3.822 2.576 6.16 6.16 0 0 1 3.725-.308c1.629.366 2.966 1.332 3.793 2.583a6.093 6.093 0 0 1 3.754-.314c1.63.371 2.96 1.343 3.762 2.589 1.116-.49 2.446-.634 3.787-.322 1.63.379 2.954 1.356 3.73 2.596 1.11-.502 2.458-.65 3.817-.328 1.63.386 2.949 1.37 3.698 2.601 1.104-.515 2.469-.666 3.849-.334 1.633.394 2.946 1.385 3.665 2.608 1.095-.529 2.48-.684 3.882-.34 1.636.402 2.943 1.4 3.63 2.61 1.084-.541 2.49-.7 3.917-.341 1.642.411 2.944 1.415 3.596 2.613 1.067-.556 2.498-.718 3.95-.346 1.649.422 2.948 1.434 3.56 2.616 1.046-.572 2.505-.736 3.989-.347 2.533.661 4.224 2.696 3.758 4.519l-1.115 4.363c-.466 1.824-2.92 2.774-5.452 2.112-1.407-.369-2.555-1.16-3.217-2.104-1.092.806-2.763 1.106-4.467.67-1.398-.357-2.546-1.141-3.236-2.093-1.128.787-2.773 1.081-4.447.661-1.392-.349-2.542-1.127-3.257-2.085-1.158.769-2.78 1.057-4.427.652-1.388-.341-2.54-1.111-3.277-2.076-1.182.753-2.783 1.034-4.406.643-1.384-.333-2.54-1.096-3.298-2.065-1.201.737-2.784 1.011-4.385.632-1.382-.326-2.54-1.083-3.317-2.056-1.218.722-2.784.992-4.367.624-1.38-.32-2.541-1.072-3.337-2.046-1.231.709-2.782.972-4.347.614a6.14 6.14 0 0 1-3.356-2.037 6.12 6.12 0 0 1-4.327.604 6.2 6.2 0 0 1-3.375-2.027 6.198 6.198 0 0 1-4.308.594 6.258 6.258 0 0 1-3.394-2.016 6.285 6.285 0 0 1-4.29.583 6.313 6.313 0 0 1-3.412-2.005 6.361 6.361 0 0 1-4.271.573 6.378 6.378 0 0 1-3.43-1.995 6.442 6.442 0 0 1-4.253.563c-2.83-.599-4.847-2.99-5.11-5.734-4.591-.943-9.742-1.957-14.838-2.959-16.745-3.297-32.857-6.469-48.848-11.5-4.9.773-9.832 1.336-14.784 1.718 1.12.369 2.236.75 3.348 1.141 7.332 2.582 16.578 6.196 24.103 11.263 8.733 5.879 15.089 13.622 14.436 23.906-.605 9.549-5.557 17.568-12.575 24.16-8.445 7.931-19.931 13.771-29.931 17.588-9.937 3.793-20.63 6.398-31.433 7.948-11.523 1.652-23.203 2.097-34.242 1.501-12.735-.687-25.047-2.136-37.112-4.679-12.114-2.554-24.01-6.223-35.866-11.345l-.01.022c-6.915-2.988-12.942-6.22-17.422-10.263-5.245-4.732-8.334-10.388-8.315-17.619.023-9.227 5.665-16.386 13.522-22.039a62.952 62.952 0 0 1 3.446-2.304 5.682 5.682 0 0 1-.994-.544 6.074 6.074 0 0 1-3.487 1.773c-1.607.24-3.15-.153-4.305-.971-.852.906-2.066 1.569-3.47 1.784-1.626.249-3.184-.152-4.323-.982-.832.904-2.043 1.573-3.45 1.795-1.648.26-3.224-.148-4.341-.993-.812.902-2.021 1.577-3.431 1.806-1.675.272-3.27-.145-4.363-1.004-.79.898-1.996 1.58-3.411 1.817-1.702.284-3.321-.14-4.383-1.014-.764.892-1.968 1.582-3.39 1.827-1.734.298-3.378-.135-4.402-1.026-.736.887-1.941 1.585-3.373 1.839-2.578.457-4.947-.686-5.265-2.542l-.762-4.437c-.318-1.855 1.53-3.747 4.107-4.205 1.512-.268 2.949.013 3.946.666.705-1.13 2.083-2.034 3.76-2.322 1.478-.255 2.89.021 3.908.66.746-1.142 2.127-2.038 3.796-2.317 1.45-.242 2.838.028 3.874.655.782-1.153 2.167-2.041 3.83-2.311 1.425-.231 2.792.035 3.84.648.815-1.161 2.205-2.043 3.866-2.305 1.4-.221 2.748.039 3.807.641.846-1.167 2.24-2.043 3.897-2.297 1.38-.212 2.709.043 3.776.633.873-1.173 2.273-2.042 3.928-2.289 1.362-.204 2.674.046 3.746.624.9-1.178 2.305-2.039 3.96-2.28a6.092 6.092 0 0 1 3.714.614c.925-1.181 2.337-2.036 3.99-2.271a6.16 6.16 0 0 1 3.687.606 6.226 6.226 0 0 1 4.017-2.262c.337-.047.67-.067.999-.06 4.602-1.861 20.908-4.908 23.399-5.317-4.837-2.56-9.327-5.761-13.294-9.607a59.073 59.073 0 0 1-4.065-4.372c-10.803 5.014-21.691 9.824-33.092 13.409a538.592 538.592 0 0 1-35.163 9.762 532.92 532.92 0 0 1-34.29 7.108c-.107 2.946-2.238 5.555-5.25 6.134a6.447 6.447 0 0 1-4.243-.64 6.367 6.367 0 0 1-3.464 1.931 6.36 6.36 0 0 1-4.26-.651 6.32 6.32 0 0 1-3.448 1.943 6.28 6.28 0 0 1-4.278-.663 6.255 6.255 0 0 1-3.43 1.954 6.203 6.203 0 0 1-4.297-.673 6.202 6.202 0 0 1-3.412 1.964 6.115 6.115 0 0 1-4.315-.683 6.14 6.14 0 0 1-3.393 1.975c-1.572.329-3.118.037-4.336-.694-.813.959-1.989 1.689-3.373 1.985-1.59.338-3.15.04-4.355-.705-.794.958-1.967 1.694-3.354 1.996-1.608.349-3.186.046-4.374-.714-.775.955-1.944 1.697-3.334 2.005-1.63.361-3.226.051-4.394-.723-.755.95-1.92 1.699-3.314 2.014-1.655.375-3.271.058-4.415-.733-.732.945-1.896 1.701-3.294 2.024-1.681.389-3.32.065-4.435-.741-.707.937-1.869 1.701-3.273 2.033-1.713.405-3.377.073-4.455-.752-.68.931-1.841 1.702-3.255 2.044-2.544.615-4.98-.38-5.412-2.212l-1.034-4.382c-.433-1.832 1.295-3.834 3.84-4.45 1.491-.361 2.946-.17 3.982.421.634-1.172 1.95-2.159 3.606-2.55 1.46-.346 2.888-.158 3.944.417.674-1.186 1.995-2.165 3.643-2.546 1.433-.331 2.837-.147 3.91.414.709-1.199 2.034-2.171 3.679-2.543 1.408-.319 2.79-.138 3.874.41.742-1.209 2.072-2.175 3.713-2.539 1.385-.308 2.748-.131 3.842.404.772-1.217 2.107-2.177 3.745-2.533 1.365-.297 2.71-.124 3.81.399.8-1.225 2.14-2.179 3.778-2.528 1.346-.287 2.673-.118 3.78.393.825-1.232 2.173-2.179 3.809-2.521a6.095 6.095 0 0 1 3.748.384 6.148 6.148 0 0 1 3.839-2.513 6.156 6.156 0 0 1 3.719.376 6.221 6.221 0 0 1 3.869-2.505 6.226 6.226 0 0 1 3.689.369 6.297 6.297 0 0 1 3.899-2.498 6.296 6.296 0 0 1 3.66.36 6.377 6.377 0 0 1 3.927-2.489zm71.19-358.54c2.104 1.208 3.239 3.479 3.122 5.759a463.012 463.012 0 0 1 6.938 3.422c10.212-10.742 19.409-22.141 26.558-34.895 3.238-5.777 3.358-13.683 1.326-21.34a44.643 44.643 0 0 0-1.107-3.564c-12.143 1.006-23.528 6.811-32.688 15.112-9.904 8.976-17.139 20.759-19.919 32.51a963.795 963.795 0 0 1 8.416 3.823c1.955-1.795 4.936-2.215 7.354-.827zm-3.496 17.573c-1.937 1.425-4.619 1.667-6.83.397a6.257 6.257 0 0 1-3.121-5.077 972.189 972.189 0 0 0-3.814-1.743c-.089 7.371.703 14.773 2.263 22.111 5.082-4.614 10.118-9.251 15.013-13.981a469.665 469.665 0 0 0-3.511-1.707zm199.34-13.921a6.258 6.258 0 0 1 6.07.189c2.713-1.152 5.454-2.308 8.232-3.471 15.556-6.513 31.479-13.605 46.831-21.86 15.226-8.189 29.934-17.544 43.226-28.656 2.705-2.261 5.251-6.342 6.547-10.715.986-3.328 1.197-6.606.038-8.877h-.027c-2.646-5.182-7.681-8.983-13.689-11.653-8.245-3.664-18.168-5.205-26.746-5.297-15.787-.171-32.061.899-47.744 3.987-15.399 3.032-30.145 8.021-43.145 15.716-6.067 3.592-12.723 9.988-17.233 17.169-3.473 5.528-5.569 11.331-4.809 16.204 2.689 17.255 14.934 28.54 28.251 40.813 1.306 1.205 2.623 2.42 3.986 3.692a995.618 995.618 0 0 1 6.994-3.065 6.249 6.249 0 0 1 3.218-4.176zm-43.352 37.988c.256 2.482-.998 4.993-3.34 6.206-2.264 1.171-4.936.812-6.809-.699-7.92 5.65-14.848 11.75-20.787 18.3 1.528 2.912 2.788 5.97 3.056 9.25.25 3.033-.692 6.401-2.072 9.025-.964 1.83-3.025 3.696-2.993 5.413.056 3.021 1.474 4.484 3.339 6.707 2.755 3.281 4.372 7.77 5.411 12.121.753 3.159 1.206 6.637.46 9.799-.431 1.822-3.339 2.023-3.685 3.868-1.04 5.553.21 11.368-.229 17.02-.559 7.181-1.773 14.281-2.763 21.404-.85 6.115-2.482 12.128-2.763 18.309l-.028.572c1.775 1.177 3.565 2.359 5.369 3.546 2.638 1.735 7.136 4.66 11.678 7.614 41.444 26.945 87.553 56.928 100.52 99.354 20.34-5.356 36.172-14.374 47.72-25.128 14.404-13.413 22.118-29.464 23.557-44.302 1.301-13.431-.214-26.816-3.821-39.755-4.013-14.393-10.635-28.261-18.872-41.056-24.706-38.378-56.465-68.525-92.173-102.42-3.423-3.249-6.884-6.532-10.377-9.861l-.918.418a693.405 693.405 0 0 0-29.483 14.295zM228.892 641.4a55.088 55.088 0 0 1-.379-8.886c.322-7.861 3.578-15.655 7.829-21.919 7.195-10.599 17.827-17.705 25.788-27.593 4.762-5.913 10.677-11.815 12.204-19.591 2.721-13.855.642-28.39 0-42.557-.236-5.183-1.423-10.247-2.301-15.353a608.115 608.115 0 0 1-6.585-4.954c-16.074-12.263-31.448-25.294-46.988-40.428-16.546-16.115-30.418-35.436-39.305-56.11a146.54 146.54 0 0 1-1.622-3.933c-12.422 11.354-24.498 22.953-34.748 35.699-13.246 16.471-26.954 33.987-37.562 52.516-10.35 18.08-17.739 37.126-18.747 57.084-.787 15.589 2.734 29.079 9.566 40.616 7.544 12.743 19.17 23.247 33.539 31.674 21.148 12.404 47.077 16.197 72.373 19.896 3.487.51 6.973 1.02 12.963 1.96 4.637.728 9.296 1.349 13.975 1.879zm40.438-154.93a141.426 141.426 0 0 1-.523-5.328c-.438-5.652.811-11.467-.228-17.02-.347-1.845-3.255-2.046-3.686-3.868-.746-3.162-.293-6.64.46-9.799 1.039-4.351 2.656-8.84 5.411-12.121 1.865-2.223 3.283-3.686 3.339-6.707.033-1.717-2.029-3.583-2.993-5.413-1.38-2.624-2.321-5.992-2.072-9.025.237-2.901 1.249-5.629 2.537-8.235-12.123-16.235-33.289-27.122-53.054-37.285-2.223-1.143-4.428-2.276-6.568-3.389-7.627 7.534-15.61 14.778-23.622 22.013.986 2.81 2.075 5.603 3.265 8.37 8.188 19.048 20.995 36.875 36.288 51.769 13.706 13.348 27.313 25.04 41.446 36.038zm9.723-89.835.346-.592c.987-1.717 1.896-3.97 1.383-5.931-.905-3.455-4.268-5.616-5.297-9.026-.738-2.444-.408-5.257.229-7.736.555-2.153 2.526-3.573 3.225-5.673.564-1.699 1.095-3.748.46-5.416-1.024-2.693-3.488-4.37-5.065-6.705-3.293-4.874-4.558-12.144-4.606-18.567-.033-4.597 1.6-9.656 4.375-12.893 3.108-3.624 8.737-6.18 9.572-10.903a56.802 56.802 0 0 0-4.038-4.287c-8.195-7.854-18.74-13.508-29.133-15.906 2.581 10.511 2.055 21.64-2.853 30.395-7.172 12.794-16.063 24.149-25.866 34.75l2.93 1.507c19.548 10.052 40.356 20.755 54.338 36.983zm38.485 140.32c-.523 8.915-.692 17.821 1.005 26.461 1.527 7.776 7.442 13.678 12.204 19.591 7.961 9.888 18.592 16.994 25.788 27.593 4.251 6.264 7.507 14.058 7.829 21.919.165 4.033-.162 8.103-.859 12.116a25.329 25.329 0 0 1 4.71-1.194c3.686-.549 8.773-1.264 13.94-1.99 12.929-1.817 26.43-3.715 40.691-6.551-12.041-37.268-55.531-65.55-94.642-90.98-3.127-2.033-6.219-4.043-10.666-6.965zm29.747 144.29a61.22 61.22 0 0 1-5.948 6.721 56.102 56.102 0 0 1-2.531 2.304c4.067.253 8.125.42 12.164.488 2.631.044 5.259.045 7.884-.001-5.357-2.747-9.113-6.002-11.569-9.512zm-40.704 96.416c10.178.55 20.97.136 31.648-1.395 9.818-1.409 19.52-3.771 28.521-7.207 8.697-3.32 18.558-8.277 25.485-14.782 4.688-4.404 7.98-9.495 8.34-15.16.282-4.453-3.416-8.444-8.454-11.835-6.245-4.205-14.488-7.405-21.086-9.728a163.052 163.052 0 0 0-7.489-2.435c-14.939-2.329-37.374-2.373-59.73-.254-20.763 1.969-41.304 5.796-55.46 11.377-6.662 2.626-14.164 5.917-19.778 9.955-4.599 3.309-7.901 7.041-7.911 11.08-.007 2.908 1.43 5.36 3.869 7.56 3.202 2.889 8.02 5.42 13.716 7.881v.027c10.921 4.718 21.963 8.116 33.282 10.502 11.372 2.397 23.001 3.764 35.047 4.414zm81.429-89.615c1.694-.303 3.384-.632 5.069-.992 11.918-2.544 20.633-8.342 26.012-15.812 4.801-6.669 7.005-14.754 6.498-23.082-14.494 2.88-28.33 4.826-41.581 6.688-4.236.595-8.404 1.181-13.835 1.99-3.362.502-7.024 2.637-9.716 5.581-1.539 1.683-2.689 3.578-3.165 5.492-.385 1.549-.297 3.145.471 4.641 1.117 2.179 3.588 4.401 7.887 6.489 7.405 3.596 14.846 6.524 22.36 9.005zm-217.07-354.14c3.804-13.541 12.185-26.803 23.369-36.94 9.731-8.819 21.627-15.345 34.55-17.755-1.402-1.629-2.923-3.066-4.538-4.253-13.056-9.602-28.065-16.132-44.05-19.845-17.048-3.96-35.22-4.73-53.351-2.62-8.857 1.03-18.161 3.602-25.525 8.161-5.624 3.481-10.097 8.141-12.207 14.17-1.088 3.108.529 6.993 3.372 10.931 5.195 7.193 14.2 14.01 20.786 18.333 18.778 12.323 38.032 21.103 57.594 29.818z" transform="matrix(1.25 0 0 1.25 -2.762 6.181)"/>
<path style="fill:#fff" d="M296.51 78.601c4.402 0 8.515 1.057 12.014 2.89-3.768-.686-7.809-1.059-12.014-1.059-4.206 0-8.246.373-12.015 1.06 3.499-1.834 7.613-2.891 12.015-2.891zM296.51 103.18c3.208 0 6.206 1.056 8.756 2.891-2.746-.687-5.691-1.06-8.756-1.06s-6.01.373-8.757 1.06c2.55-1.835 5.548-2.891 8.757-2.891zM296.51 118.6c2.173 0 4.203.716 5.931 1.958-1.861-.465-3.855-.718-5.931-.718s-4.071.253-5.931.718c1.727-1.242 3.758-1.958 5.931-1.958zM296.51 237.97c4.402 0 8.515 1.057 12.014 2.891-3.768-.687-7.809-1.06-12.014-1.06-4.206 0-8.246.373-12.015 1.06 3.499-1.834 7.613-2.891 12.015-2.891zM296.51 289.37c3.208 0 6.206 1.056 8.756 2.891-2.746-.687-5.691-1.06-8.756-1.06s-6.01.373-8.757 1.06c2.55-1.835 5.548-2.891 8.757-2.891zM296.51 317.91c4.402 0 8.515 1.057 12.014 2.891-3.768-.687-7.809-1.06-12.014-1.06-4.206 0-8.246.373-12.015 1.06 3.499-1.834 7.613-2.891 12.015-2.891zM296.51 366.91c4.402 0 8.515 1.056 12.014 2.891-3.768-.687-7.809-1.06-12.014-1.06-4.206 0-8.246.373-12.015 1.06 3.499-1.835 7.613-2.891 12.015-2.891zM296.51 397.85c4.402 0 8.515 1.057 12.014 2.891-3.768-.687-7.809-1.06-12.014-1.06-4.206 0-8.246.373-12.015 1.06 3.499-1.834 7.613-2.891 12.015-2.891zM296.51 464.34c8.031 0 15.535-1.928 21.919-5.274-6.875 1.253-14.247 1.933-21.919 1.933s-15.044-.68-21.919-1.933c6.383 3.346 13.887 5.274 21.919 5.274zM296.51 432.68c6.708 0 12.976 1.611 18.309 4.406-5.743-1.047-11.901-1.615-18.309-1.615-6.409 0-12.566.568-18.309 1.615 5.332-2.795 11.6-4.406 18.309-4.406zM296.51 358.96c4.402 0 8.515-1.056 12.014-2.891-3.768.687-7.809 1.06-12.014 1.06-4.206 0-8.246-.373-12.015-1.06 3.499 1.835 7.613 2.891 12.015 2.891zM142.66 710.91c-.447-5.744-2.205-10.441-5.736-11.285 3.761-.612 6.509 4.553 5.736 11.285zM134.15 713.23c-.447-5.744-2.205-10.441-5.736-11.285 3.761-.613 6.509 4.552 5.736 11.285zM238.59 716.59c-.447-5.745-2.206-10.441-5.736-11.286 3.761-.612 6.509 4.553 5.736 11.286zM230.39 716.19c-.37-4.761-1.828-8.654-4.754-9.354 3.117-.507 5.395 3.773 4.754 9.354zM222.65 717.74c-.37-4.761-1.828-8.654-4.754-9.353 3.117-.508 5.395 3.773 4.754 9.353zM214.19 717.44c-.302-3.893-1.494-7.075-3.886-7.647 2.548-.415 4.41 3.085 3.886 7.647zM453.35 711.75c1.237-5.628 3.629-10.036 7.242-10.383-3.64-1.127-7.076 3.608-7.242 10.383zM461.53 712.5c1.026-4.663 3.008-8.317 6.003-8.605-3.017-.934-5.865 2.99-6.003 8.605zM468.98 715.1c1.025-4.664 3.008-8.317 6.002-8.605-3.017-.934-5.864 2.99-6.002 8.605zM477.4 715.97c.839-3.813 2.459-6.8 4.908-7.036-2.467-.763-4.795 2.445-4.908 7.036zM49.512 732.64c-.312-4.014-1.541-7.297-4.009-7.887 2.629-.428 4.55 3.182 4.009 7.887zM175.41 726.54c-.133-4.025-1.215-7.359-3.654-8.058 2.645-.311 4.403 3.381 3.654 8.058zM546.24 736.85c.133-4.025 1.214-7.359 3.653-8.058-2.645-.311-4.402 3.381-3.653 8.058z" transform="matrix(1.25 0 0 1.25 -2.762 6.181)"/></g>
</svg>